<?xml version="1.0" encoding="UTF-8" standalone="no"?>
<!-- Created with Inkscape (http://www.inkscape.org/) -->

<svg
   xmlns:dc="http://purl.org/dc/elements/1.1/"
   xmlns:cc="http://creativecommons.org/ns#"
   xmlns:rdf="http://www.w3.org/1999/02/22-rdf-syntax-ns#"
   xmlns:svg="http://www.w3.org/2000/svg"
   xmlns="http://www.w3.org/2000/svg"
   xmlns:sodipodi="http://sodipodi.sourceforge.net/DTD/sodipodi-0.dtd"
   xmlns:inkscape="http://www.inkscape.org/namespaces/inkscape"
   width="210mm"
   height="297mm"
   viewBox="0 0 210 297"
   version="1.1"
   id="svg8"
   inkscape:version="0.92.2 5c3e80d, 2017-08-06"
   sodipodi:docname="battery.svg">
  <defs
     id="defs2" />
  <sodipodi:namedview
     id="base"
     pagecolor="#ffffff"
     bordercolor="#666666"
     borderopacity="1.0"
     inkscape:pageopacity="0.0"
     inkscape:pageshadow="2"
     inkscape:zoom="0.5"
     inkscape:cx="353.42857"
     inkscape:cy="560"
     inkscape:document-units="mm"
     inkscape:current-layer="layer1"
     showgrid="false"
     inkscape:object-paths="true"
     inkscape:snap-nodes="true"
     inkscape:snap-others="false"
     inkscape:object-nodes="false"
     inkscape:snap-global="true"
     inkscape:window-width="1440"
     inkscape:window-height="800"
     inkscape:window-x="0"
     inkscape:window-y="1"
     inkscape:window-maximized="1" />
  <metadata
     id="metadata5">
    <rdf:RDF>
      <cc:Work
         rdf:about="">
        <dc:format>image/svg+xml</dc:format>
        <dc:type
           rdf:resource="http://purl.org/dc/dcmitype/StillImage" />
        <dc:title></dc:title>
      </cc:Work>
    </rdf:RDF>
  </metadata>
  <g
     inkscape:label="Layer 1"
     inkscape:groupmode="layer"
     id="layer1">
    <path
       style="color:#000000;font-style:normal;font-variant:normal;font-weight:normal;font-stretch:normal;font-size:medium;line-height:normal;font-family:sans-serif;font-variant-ligatures:normal;font-variant-position:normal;font-variant-caps:normal;font-variant-numeric:normal;font-variant-alternates:normal;font-feature-settings:normal;text-indent:0;text-align:start;text-decoration:none;text-decoration-line:none;text-decoration-style:solid;text-decoration-color:#000000;letter-spacing:normal;word-spacing:normal;text-transform:none;writing-mode:lr-tb;direction:ltr;text-orientation:mixed;dominant-baseline:auto;baseline-shift:baseline;text-anchor:start;white-space:normal;shape-padding:0;clip-rule:nonzero;display:inline;overflow:visible;visibility:visible;opacity:1;isolation:auto;mix-blend-mode:normal;color-interpolation:sRGB;color-interpolation-filters:linearRGB;solid-color:#000000;solid-opacity:1;vector-effect:none;fill:#ff8080;fill-opacity:1;fill-rule:nonzero;stroke:none;stroke-width:13.22916508;stroke-linecap:round;stroke-linejoin:round;stroke-miterlimit:4;stroke-dasharray:none;stroke-dashoffset:0;stroke-opacity:1;color-rendering:auto;image-rendering:auto;shape-rendering:auto;text-rendering:auto;enable-background:accumulate"
       d="m 105.03958,26.860375 c -8.850075,0 -16.859862,0.659789 -22.875603,1.788523 -3.00787,0.564364 -5.522261,1.235657 -7.46983,2.099611 -1.947569,0.863957 -3.521231,2.057823 -3.521231,3.552238 a 2.6134398,1.5765305 0 0 0 0.0026,0.03359 2.6134398,1.5765305 0 0 0 -0.001,0.02222 l 0.0057,11.189499 c -8.899233,1.269278 -17.011218,3.036353 -24.044526,5.22397 -7.613644,2.368124 -13.978641,5.183542 -18.908405,8.808765 -4.929767,3.625218 -8.912636,8.635886 -8.912635,14.906583 a 6.6152447,6.6152447 0 0 0 0.0067,0.141594 6.6152447,6.6152447 0 0 0 -0.0031,0.09302 l 0.05064,162.995732 a 6.6152447,6.6152447 0 0 0 -0.03204,1.35547 c 0.0079,0.0957 0.02275,0.19031 0.03256,0.28577 v 0.0837 a 6.6152447,6.6152447 0 0 0 0.353467,2.11305 c 1.130634,5.37646 4.970434,9.45759 9.609233,12.6261 5.018495,3.42787 11.394456,6.13193 18.947164,8.3969 15.105412,4.52993 34.952143,7.1669 56.759326,7.17113 a 6.6152447,6.6152447 0 0 0 10e-4,0 c 22.40168,0 42.67667,-2.7692 57.90396,-7.50548 7.61365,-2.3681 13.97864,-5.18354 18.90841,-8.80875 4.92976,-3.62522 8.91263,-8.6359 8.91263,-14.90659 a 6.6152447,6.6152447 0 0 0 -0.007,-0.15451 6.6152447,6.6152447 0 0 0 0.003,-0.093 l -0.001,-163.509913 a 6.6152447,6.6152447 0 0 0 -5.1e-4,-0.0052 6.6152447,6.6152447 0 0 0 0,-0.0036 6.6152447,6.6152447 0 0 0 0.006,-0.275436 c 0,-6.270697 -3.98288,-11.281365 -8.91264,-14.906583 -4.92977,-3.625223 -11.29475,-6.440641 -18.9084,-8.808765 -7.0318,-2.187149 -15.14186,-3.953716 -24.03885,-5.222938 V 34.368443 a 2.6134398,1.5765305 0 0 0 -5.1e-4,-10e-4 2.6134398,1.5765305 0 0 0 0,-0.001 2.6134398,1.5765305 0 0 0 0.002,-0.06563 c 0,-1.494415 -1.57315,-2.688281 -3.52071,-3.552238 -1.94757,-0.863952 -4.46247,-1.535247 -7.47034,-2.099611 -6.01576,-1.128734 -14.02553,-1.788523 -22.87561,-1.788523 z m -33.855811,25.413435 0.01085,20.927923 a 2.6134398,1.5765304 0 0 0 -0.01292,0.322976 c 0.0031,0.02281 0.0092,0.04547 0.01292,0.06821 v 0.01964 a 2.6134398,1.5765304 0 0 0 0.139528,0.503846 c 0.446664,1.281308 1.964047,2.253488 3.796665,3.008601 1.982623,0.816922 4.501533,1.461646 7.485332,2.00143 5.967592,1.079561 13.808215,1.707936 22.423436,1.708938 a 2.6134398,1.5765304 0 0 0 5.2e-4,0 c 8.85008,0 16.85989,-0.65978 22.87561,-1.788519 3.00787,-0.564362 5.52223,-1.235663 7.46982,-2.099615 1.94756,-0.863954 3.52123,-2.05782 3.52123,-3.552237 a 2.6134398,1.5765304 0 0 0 -0.002,-0.03669 2.6134398,1.5765304 0 0 0 10e-4,-0.02222 l -5.2e-4,-21.055044 A 79.11041,24.606248 0 0 1 184.15,74.485375 79.11041,24.606248 0 0 1 105.03958,99.091617 79.11041,24.606248 0 0 1 25.929166,74.485375 79.11041,24.606248 0 0 1 71.183769,52.27381 Z m -45.250985,81.71078 h 0.0083 l 0.01447,29.76717 c -0.0027,0.0171 -0.0054,0.0341 -0.0083,0.0512 z m 0.01292,0 h 0.0093 l 0.01447,29.67984 c -0.0033,0.0195 -0.0061,0.0389 -0.0093,0.0584 z m 158.158306,0.0517 h 0.0408 l 0.001,104.24325 h -0.0238 c 0.0106,0.0825 0.0199,0.16501 0.0279,0.24753 -1e-5,13.58965 -35.41895,24.60624 -79.11042,24.60624 -42.529944,-0.008 -77.428282,-10.47385 -79.006543,-23.69312 l -0.04909,5.2e-4 v -0.43305 c -0.02329,-0.16014 -0.04155,-0.32034 -0.05478,-0.48059 0.0156,-0.11269 0.03368,-0.22535 0.05426,-0.33796 l -0.0078,-15.65693 c 0.0032,0.0238 0.0048,0.0475 0.0083,0.0713 v 0.43305 l 0.04909,-5.2e-4 c 0.655193,5.48782 7.056618,10.49997 17.35863,14.48749 v -9.525 c -10.301898,-3.98754 -16.703439,-8.9997 -17.35863,-14.48749 l -0.04909,5.2e-4 v -0.43305 c -0.002,-0.0139 -0.0027,-0.0279 -0.0047,-0.0419 l 0.0041,8.74831 c -0.003,0.0165 -0.0048,0.0331 -0.0078,0.0496 l -0.01395,-28.53056 c 0.0029,0.0231 0.0048,0.0462 0.0078,0.0693 l 0.0093,18.91564 c 0.0017,-0.01 0.0029,-0.0193 0.0047,-0.0289 l -0.0093,-18.84536 c 0.0038,0.0282 0.0057,0.0566 0.0098,0.0848 v 0.43305 l 0.04909,-5.2e-4 c 0.655191,5.48777 7.056732,10.49997 17.35863,14.48749 v -9.525 c -10.301898,-3.98755 -16.703439,-8.99971 -17.35863,-14.48749 l -0.04909,5.2e-4 v -0.43305 c -0.002,-0.0139 -0.0027,-0.0279 -0.0047,-0.0419 l 0.0041,8.7483 c -0.0036,0.0196 -0.0059,0.0393 -0.0093,0.0589 l -0.01395,-28.55277 c 0.0032,0.0274 0.0058,0.0548 0.0093,0.0822 l 0.0093,18.91564 c 0.0017,-0.01 0.0029,-0.0193 0.0047,-0.0289 l -0.0093,-18.84536 c 0.0038,0.0283 0.0057,0.0565 0.0098,0.0848 v 0.43305 l 0.04909,-5.2e-4 c 0.655191,5.48778 7.056732,10.49998 17.35863,14.48749 v -9.525 c -10.301689,-3.98774 -16.70323,-8.9999 -17.358421,-14.48768 l -0.04909,5.2e-4 v -0.43305 c -0.002,-0.0139 -0.0027,-0.0279 -0.0047,-0.0419 l 0.0041,8.74831 c -0.0036,0.0196 -0.0059,0.0393 -0.0093,0.0589 l -0.01447,-29.592 c 0.0017,0.0447 0.0068,0.0892 0.0093,0.13385 l 0.0098,19.90317 c 0.0017,-0.01 0.0029,-0.0193 0.0047,-0.0289 l -0.0098,-19.80758 c 0.851845,13.37497 35.954044,24.11042 79.065974,24.11429 43.31918,-0.007 78.5641,-10.84906 79.06443,-24.32203 z M 25.947253,164.07422 c 0.003,0.0238 0.0056,0.0475 0.0083,0.0713 l 0.01395,28.62306 c -0.0029,0.0167 -0.0054,0.0334 -0.0083,0.0501 z"
       id="path853"
       inkscape:connector-curvature="0" />
  </g>
</svg>
