<?xml version="1.0" encoding="UTF-8" standalone="no"?>
<!-- Created with Inkscape (http://www.inkscape.org/) -->

<svg
   xmlns:dc="http://purl.org/dc/elements/1.1/"
   xmlns:cc="http://creativecommons.org/ns#"
   xmlns:rdf="http://www.w3.org/1999/02/22-rdf-syntax-ns#"
   xmlns:svg="http://www.w3.org/2000/svg"
   xmlns="http://www.w3.org/2000/svg"
   xmlns:xlink="http://www.w3.org/1999/xlink"
   xmlns:sodipodi="http://sodipodi.sourceforge.net/DTD/sodipodi-0.dtd"
   xmlns:inkscape="http://www.inkscape.org/namespaces/inkscape"
   width="79.375008mm"
   height="102.39375mm"
   viewBox="0 0 79.375008 102.39375"
   version="1.1"
   id="svg8"
   inkscape:version="0.92.2 5c3e80d, 2017-08-06"
   sodipodi:docname="letter-logo.svg">
  <defs
     id="defs2">
    <linearGradient
       inkscape:collect="always"
       id="linearGradient896">
      <stop
         style="stop-color:#ff0000;stop-opacity:1;"
         offset="0"
         id="stop892" />
      <stop
         style="stop-color:#fffb00;stop-opacity:1"
         offset="1"
         id="stop894" />
    </linearGradient>
    <linearGradient
       inkscape:collect="always"
       xlink:href="#linearGradient896"
       id="linearGradient898"
       x1="159.24661"
       y1="659.01953"
       x2="422.25339"
       y2="659.01953"
       gradientUnits="userSpaceOnUse"
       gradientTransform="matrix(0.26458333,0,0,0.26458333,33.3375,-27.516667)" />
    <linearGradient
       inkscape:collect="always"
       xlink:href="#linearGradient896"
       id="linearGradient906"
       x1="420.36975"
       y1="680.4646"
       x2="127.39291"
       y2="742.37915"
       gradientUnits="userSpaceOnUse"
       gradientTransform="matrix(0.26458333,0,0,0.26458333,33.3375,-27.516667)" />
  </defs>
  <sodipodi:namedview
     id="base"
     pagecolor="#ffffff"
     bordercolor="#666666"
     borderopacity="1.0"
     inkscape:pageopacity="0.0"
     inkscape:pageshadow="2"
     inkscape:zoom="0.5"
     inkscape:cx="94.893125"
     inkscape:cy="203.13921"
     inkscape:document-units="px"
     inkscape:current-layer="layer1"
     showgrid="false"
     inkscape:object-paths="true"
     inkscape:snap-intersection-paths="true"
     inkscape:snap-smooth-nodes="true"
     inkscape:window-width="1440"
     inkscape:window-height="799"
     inkscape:window-x="0"
     inkscape:window-y="1"
     inkscape:window-maximized="1"
     fit-margin-top="0"
     fit-margin-left="0"
     fit-margin-right="0"
     fit-margin-bottom="0" />
  <metadata
     id="metadata5">
    <rdf:RDF>
      <cc:Work
         rdf:about="">
        <dc:format>image/svg+xml</dc:format>
        <dc:type
           rdf:resource="http://purl.org/dc/dcmitype/StillImage" />
        <dc:title></dc:title>
      </cc:Work>
    </rdf:RDF>
  </metadata>
  <g
     inkscape:label="Layer 1"
     inkscape:groupmode="layer"
     id="layer1"
     transform="translate(-65.616666,-95.65204)">
    <path
       style="opacity:1;fill:url(#linearGradient906);fill-opacity:1;stroke-width:0.17877252"
       d="m 105.30417,118.67079 a 39.687499,39.687499 0 0 0 -39.687504,39.6875 39.687499,39.687499 0 0 0 39.687504,39.6875 39.687499,39.687499 0 0 0 39.6875,-39.6875 39.687499,39.687499 0 0 0 -39.6875,-39.6875 z m 0,19.84375 a 19.84375,19.84375 0 0 1 19.84375,19.84375 19.84375,19.84375 0 0 1 -19.84375,19.84375 19.84375,19.84375 0 0 1 -19.843754,-19.84375 19.84375,19.84375 0 0 1 19.843754,-19.84375 z"
       id="path815"
       inkscape:connector-curvature="0" />
    <path
       style="opacity:1;fill:url(#linearGradient898);fill-opacity:1;stroke:#000000;stroke-width:0;stroke-miterlimit:4;stroke-dasharray:none;stroke-opacity:1"
       d="m 144.99167,95.652041 c -10.99343,0 -19.84375,8.850309 -19.84375,19.843749 v 42.86198 a 19.843749,19.843749 0 0 1 0,5.2e-4 19.843749,19.843749 0 0 1 -19.84375,19.84375 19.843749,19.843749 0 0 1 -19.843754,-19.84375 19.843749,19.843749 0 0 1 18.440214,-19.79414 29.765625,29.765625 0 0 0 -28.362089,29.71601 29.765625,29.765625 0 0 0 29.765629,29.76563 29.765625,29.765625 0 0 0 2.97139,-0.14883 39.687499,39.687499 0 0 0 36.71611,-39.53867 v -5.2e-4 z"
       id="path843"
       inkscape:connector-curvature="0" />
  </g>
</svg>
