<?xml version="1.0" encoding="UTF-8" standalone="no"?>
<!-- Created with Inkscape (http://www.inkscape.org/) -->

<svg
   xmlns:dc="http://purl.org/dc/elements/1.1/"
   xmlns:cc="http://creativecommons.org/ns#"
   xmlns:rdf="http://www.w3.org/1999/02/22-rdf-syntax-ns#"
   xmlns:svg="http://www.w3.org/2000/svg"
   xmlns="http://www.w3.org/2000/svg"
   xmlns:sodipodi="http://sodipodi.sourceforge.net/DTD/sodipodi-0.dtd"
   xmlns:inkscape="http://www.inkscape.org/namespaces/inkscape"
   width="150mm"
   height="17.645927mm"
   viewBox="0 0 150 17.645927"
   version="1.1"
   id="svg8"
   inkscape:version="0.92.2 5c3e80d, 2017-08-06"
   sodipodi:docname="cake-layer-v1.svg">
  <defs
     id="defs2" />
  <sodipodi:namedview
     id="base"
     pagecolor="#ffffff"
     bordercolor="#666666"
     borderopacity="1.0"
     inkscape:pageopacity="0.0"
     inkscape:pageshadow="2"
     inkscape:zoom="1.4"
     inkscape:cx="262.85714"
     inkscape:cy="137.14321"
     inkscape:document-units="mm"
     inkscape:current-layer="layer1"
     showgrid="false"
     fit-margin-top="0"
     fit-margin-left="0"
     fit-margin-right="0"
     fit-margin-bottom="0"
     inkscape:window-width="1440"
     inkscape:window-height="801"
     inkscape:window-x="0"
     inkscape:window-y="1"
     inkscape:window-maximized="1" />
  <metadata
     id="metadata5">
    <rdf:RDF>
      <cc:Work
         rdf:about="">
        <dc:format>image/svg+xml</dc:format>
        <dc:type
           rdf:resource="http://purl.org/dc/dcmitype/StillImage" />
        <dc:title></dc:title>
      </cc:Work>
    </rdf:RDF>
  </metadata>
  <g
     inkscape:label="Layer 1"
     inkscape:groupmode="layer"
     id="layer1"
     transform="translate(-33.261906,-122.11607)">
    <path
       style="opacity:1;fill:#ff9955;fill-opacity:1;stroke:none;stroke-width:0.2405327;stroke-linecap:round;stroke-linejoin:miter;stroke-miterlimit:4;stroke-dasharray:none;stroke-dashoffset:0;stroke-opacity:1"
       d="m 33.404859,124.7619 h 73.940381 75.77371 c 0.0792,0 0.14296,0.0638 0.14296,0.14295 v 14.7141 c 0,0.0792 -0.0638,0.14295 -0.14296,0.14295 H 107.72321 33.404859 c -0.0792,0 -0.142953,-0.0638 -0.142953,-0.14295 v -14.7141 c 0,-0.0792 0.06376,-0.14295 0.142953,-0.14295 z"
       id="rect831"
       inkscape:connector-curvature="0"
       sodipodi:nodetypes="scsssscssss" />
    <path
       sodipodi:nodetypes="scsssscssss"
       inkscape:connector-curvature="0"
       id="path848"
       d="m 33.404859,124.7619 73.940381,-2.64583 75.77371,2.64583 c 0.0791,0.003 0.14296,0.0638 0.14296,0.14295 v 14.7141 c 0,0.0792 -0.0638,0.14295 -0.14296,0.14295 l -75.39574,-2.64583 -74.318351,2.64583 c -0.07915,0.003 -0.142953,-0.0638 -0.142953,-0.14295 v -14.7141 c 0,-0.0792 0.06376,-0.14295 0.142953,-0.14295 z"
       style="opacity:0.74100001;fill:#ff5555;fill-opacity:1;stroke:none;stroke-width:0.2405327;stroke-linecap:round;stroke-linejoin:miter;stroke-miterlimit:4;stroke-dasharray:none;stroke-dashoffset:0;stroke-opacity:1" />
    <path
       style="opacity:0.74100001;fill:#803300;fill-opacity:1;stroke:none;stroke-width:0.2405327;stroke-linecap:round;stroke-linejoin:miter;stroke-miterlimit:4;stroke-dasharray:none;stroke-dashoffset:0;stroke-opacity:1"
       d="m 33.404859,124.7619 73.940381,-1.05833 75.77371,1.05833 c 0.0791,0.001 0.14296,0.0638 0.14296,0.14295 v 14.7141 c 0,0.0792 -0.0638,0.14295 -0.14296,0.14295 l -75.39574,-1.05833 -74.318351,1.05833 c -0.0792,0.001 -0.142953,-0.0638 -0.142953,-0.14295 v -14.7141 c 0,-0.0792 0.06376,-0.14295 0.142953,-0.14295 z"
       id="path869"
       inkscape:connector-curvature="0"
       sodipodi:nodetypes="scsssscssss" />
  </g>
</svg>
