<?xml version="1.0" encoding="UTF-8" standalone="no"?>
<!-- Created with Inkscape (http://www.inkscape.org/) -->

<svg
   xmlns:dc="http://purl.org/dc/elements/1.1/"
   xmlns:cc="http://creativecommons.org/ns#"
   xmlns:rdf="http://www.w3.org/1999/02/22-rdf-syntax-ns#"
   xmlns:svg="http://www.w3.org/2000/svg"
   xmlns="http://www.w3.org/2000/svg"
   xmlns:sodipodi="http://sodipodi.sourceforge.net/DTD/sodipodi-0.dtd"
   xmlns:inkscape="http://www.inkscape.org/namespaces/inkscape"
   sodipodi:docname="cake-layer-v7.svg"
   inkscape:version="0.92.2 5c3e80d, 2017-08-06"
   width="210mm"
   height="297mm"
   viewBox="0 0 210 297"
   version="1.1"
   id="svg8">
  <defs
     id="defs2" />
  <sodipodi:namedview
     id="base"
     pagecolor="#ffffff"
     bordercolor="#666666"
     borderopacity="1.0"
     inkscape:pageopacity="0.0"
     inkscape:pageshadow="2"
     inkscape:zoom="1.4142136"
     inkscape:cx="382.80741"
     inkscape:cy="698.57864"
     inkscape:document-units="mm"
     inkscape:current-layer="layer1"
     showgrid="false"
     inkscape:window-width="1440"
     inkscape:window-height="801"
     inkscape:window-x="0"
     inkscape:window-y="1"
     inkscape:window-maximized="1" />
  <metadata
     id="metadata5">
    <rdf:RDF>
      <cc:Work
         rdf:about="">
        <dc:format>image/svg+xml</dc:format>
        <dc:type
           rdf:resource="http://purl.org/dc/dcmitype/StillImage" />
        <dc:title></dc:title>
      </cc:Work>
    </rdf:RDF>
  </metadata>
  <g
     inkscape:label="Layer 1"
     inkscape:groupmode="layer"
     id="layer1">
    <path
       style="opacity:0.56400003;fill:#2b0000;stroke:#000000;stroke-width:0.292;stroke-linecap:butt;stroke-linejoin:miter;stroke-miterlimit:4;stroke-dasharray:none;stroke-opacity:1"
       d="m 32.400736,82.739722 c 6.310941,1.12774 14.408599,-3.15543 19.227183,0.31538 10.790022,7.772024 -1.284242,33.721748 6.453161,34.954048 7.737403,1.2323 -2.947503,-29.747221 10.082066,-35.533938 5.782257,-2.56802 14.128681,0.83983 18.525571,5.554527 6.245015,6.696404 0.625078,24.870081 6.036749,26.798071 7.286504,2.59592 1.668698,-23.700404 8.944794,-32.088098 1.5393,-1.77447 4.01884,-2.70664 6.45317,-2.83204 3.21014,-0.16536 5.79907,2.96145 9.01166,2.83204 2.15868,-0.087 3.65688,-2.61435 5.79931,-2.38051 6.55992,0.71598 8.2056,10.687214 14.82045,10.844554 3.81963,0.0909 5.51835,-4.525117 8.98508,-5.844707 3.12509,-1.18955 6.90521,-0.52797 10.13156,-1.670887 3.46668,-1.22806 6.281,-7.065387 9.58885,-5.457857 11.87777,3.634057 -3.8967,21.884705 6.47452,23.831705 8.59924,1.61434 0.0928,-15.804711 2.83821,-19.259738 1.33717,-1.51347 5.33554,0.76896 6.00264,-0.82214 1.37398,-3.277057 0.27821,-6.759087 0.23887,-9.292624 -46.37397,-1.57545 -81.87382,1.313387 -149.999996,0 z"
       id="path859"
       inkscape:connector-curvature="0"
       sodipodi:nodetypes="cazaasaaaaaaacscsccc" />
    <path
       sodipodi:nodetypes="aaaaaaaaaaaaaaaaaaa"
       inkscape:connector-curvature="0"
       id="path1000"
       d="m 72.352819,35.114693 c -2.880662,2.558693 -2.026095,7.434909 -2.997818,11.163297 -0.690791,2.650482 -2.13593,5.230271 -2.013505,7.966557 0.132402,2.959275 0.639076,6.519178 2.938316,8.386887 2.624873,2.132226 6.68914,1.036532 10.058904,1.321197 2.973945,0.251227 6.027708,-0.280126 8.947165,0.33974 2.026226,0.430213 3.812442,1.629889 5.769792,2.30772 1.858234,0.643507 3.699953,1.49966 5.659417,1.665897 3.98706,0.338255 7.92285,-1.270111 11.92208,-1.401307 3.4351,-0.112689 6.93802,-0.196994 10.29723,0.5299 3.05809,0.661736 5.63733,3.876798 8.73502,3.436227 1.87063,-0.266051 3.59772,-1.796468 4.48717,-3.463477 0.8037,-1.506301 0.69433,-3.439929 0.34198,-5.110477 -0.38276,-1.814756 -1.85002,-3.224552 -2.58199,-4.928687 -1.02709,-2.391235 -2.20745,-4.805645 -2.52131,-7.389133 -0.21132,-1.739453 0.20558,-3.502711 0.45696,-5.236828 0.23381,-1.612877 0.94238,-3.161492 0.97556,-4.79089 0.0911,-4.476843 1.46716,-10.611534 -2.14238,-13.261377 -15.83816,-11.627154 -43.642806,-4.583171 -58.332591,8.464754 z"
       style="opacity:1;fill:#2b0000;stroke:#000000;stroke-width:0.292;stroke-linecap:butt;stroke-linejoin:miter;stroke-miterlimit:4;stroke-dasharray:none;stroke-opacity:1" />
    <path
       style="opacity:0.778;fill:#ff0000;fill-opacity:1;stroke:none;stroke-width:0.19533119;stroke-linecap:round;stroke-linejoin:miter;stroke-miterlimit:4;stroke-dasharray:none;stroke-dashoffset:0;stroke-opacity:1"
       d="m 32.014584,130.89583 c 49.243051,0 99.260296,0 149.999996,0 v 10 c -49.51831,0 -99.484125,0 -149.999996,0 z"
       id="rect815"
       inkscape:connector-curvature="0"
       sodipodi:nodetypes="ccccc" />
    <path
       sodipodi:nodetypes="ccccc"
       inkscape:connector-curvature="0"
       id="path825"
       d="M 32.014584,19.770808 H 182.01458 v 9.999994 c -50,0 -99.999997,0 -149.999996,0 z"
       style="opacity:0.778;fill:#ff6600;fill-opacity:1;stroke:none;stroke-width:0.19533119;stroke-linecap:round;stroke-linejoin:miter;stroke-miterlimit:4;stroke-dasharray:none;stroke-dashoffset:0;stroke-opacity:1" />
    <path
       sodipodi:nodetypes="ccccc"
       inkscape:connector-curvature="0"
       id="path831"
       d="m 32.014584,106.55416 c 49.742063,5.15872 99.759156,4.81692 149.999996,0 v 10 c -50.24945,4.2407 -100.249447,4.24065 -149.999996,0 z"
       style="opacity:0.778;fill:#800080;fill-opacity:1;stroke:none;stroke-width:0.19533119;stroke-linecap:round;stroke-linejoin:miter;stroke-miterlimit:4;stroke-dasharray:none;stroke-dashoffset:0;stroke-opacity:1" />
    <path
       sodipodi:nodetypes="ccccc"
       inkscape:connector-curvature="0"
       id="path837"
       d="m 32.014584,115.02082 c 49.744142,-5.11713 99.757016,-4.85957 149.999996,0 v 10 c -49.75055,-6.73524 -99.750547,-6.73515 -149.999996,0 z"
       style="opacity:0.778;fill:#ff6600;fill-opacity:1;stroke:none;stroke-width:0.19533119;stroke-linecap:round;stroke-linejoin:miter;stroke-miterlimit:4;stroke-dasharray:none;stroke-dashoffset:0;stroke-opacity:1" />
  </g>
</svg>
