<?xml version="1.0" encoding="UTF-8" standalone="no"?>
<!-- Created with Inkscape (http://www.inkscape.org/) -->

<svg
   xmlns:dc="http://purl.org/dc/elements/1.1/"
   xmlns:cc="http://creativecommons.org/ns#"
   xmlns:rdf="http://www.w3.org/1999/02/22-rdf-syntax-ns#"
   xmlns:svg="http://www.w3.org/2000/svg"
   xmlns="http://www.w3.org/2000/svg"
   xmlns:sodipodi="http://sodipodi.sourceforge.net/DTD/sodipodi-0.dtd"
   xmlns:inkscape="http://www.inkscape.org/namespaces/inkscape"
   sodipodi:docname="cake-layer-v6.svg"
   inkscape:version="0.92.2 5c3e80d, 2017-08-06"
   width="210mm"
   height="297mm"
   viewBox="0 0 210 297"
   version="1.1"
   id="svg8">
  <defs
     id="defs2" />
  <sodipodi:namedview
     id="base"
     pagecolor="#ffffff"
     bordercolor="#666666"
     borderopacity="1.0"
     inkscape:pageopacity="0.0"
     inkscape:pageshadow="2"
     inkscape:zoom="1"
     inkscape:cx="225.88889"
     inkscape:cy="677.15728"
     inkscape:document-units="mm"
     inkscape:current-layer="layer1"
     showgrid="false"
     inkscape:window-width="1440"
     inkscape:window-height="801"
     inkscape:window-x="0"
     inkscape:window-y="1"
     inkscape:window-maximized="1" />
  <metadata
     id="metadata5">
    <rdf:RDF>
      <cc:Work
         rdf:about="">
        <dc:format>image/svg+xml</dc:format>
        <dc:type
           rdf:resource="http://purl.org/dc/dcmitype/StillImage" />
        <dc:title></dc:title>
      </cc:Work>
    </rdf:RDF>
  </metadata>
  <g
     inkscape:label="Layer 1"
     inkscape:groupmode="layer"
     id="layer1">
    <path
       style="opacity:1;fill:#ff6600;fill-opacity:1;stroke:none;stroke-width:0.19533119;stroke-linecap:round;stroke-linejoin:miter;stroke-miterlimit:4;stroke-dasharray:none;stroke-dashoffset:0;stroke-opacity:1"
       d="M 32.014584,130.89583 H 182.01458 v 10 H 49.741667 32.014584 Z"
       id="rect815"
       inkscape:connector-curvature="0"
       sodipodi:nodetypes="cccccc" />
    <path
       style="opacity:0.564;fill:#2b0000;stroke:#000000;stroke-width:0.292;stroke-linecap:butt;stroke-linejoin:miter;stroke-miterlimit:4;stroke-dasharray:none;stroke-opacity:1"
       d="m 32.400736,135.65641 c 6.310941,1.12774 14.408599,-3.15543 19.227183,0.31538 10.790022,7.77203 -1.284242,33.72176 6.453161,34.95406 7.737403,1.2323 -2.947503,-29.74723 10.082066,-35.53395 5.782257,-2.56802 14.128681,0.83983 18.525571,5.55453 6.245015,6.69641 0.625078,24.87009 6.036749,26.79808 7.286504,2.59592 1.668698,-23.70041 8.944794,-32.08811 1.5393,-1.77447 4.01884,-2.70664 6.45317,-2.83204 3.21014,-0.16536 5.79907,2.96145 9.01166,2.83204 2.15868,-0.087 3.65688,-2.61435 5.79931,-2.38051 6.55992,0.71598 8.2056,10.68722 14.82045,10.84456 3.81963,0.0909 5.51835,-4.52512 8.98508,-5.84471 3.12509,-1.18955 6.90521,-0.52797 10.13156,-1.67089 3.46668,-1.22806 6.281,-7.06539 9.58885,-5.45786 11.87777,3.63406 -3.8967,21.88472 6.47452,23.83172 8.59924,1.61434 0.0928,-15.80472 2.83821,-19.25975 1.33717,-1.51347 5.33554,0.76896 6.00264,-0.82214 1.37398,-3.27706 0.27821,-6.75909 0.23887,-9.29263 -46.37397,-1.57545 -81.87382,1.31339 -149.999996,0 z"
       id="path859"
       inkscape:connector-curvature="0"
       sodipodi:nodetypes="cazaasaaaaaaacscsccc" />
    <path
       sodipodi:nodetypes="aaaaaaaaaaaaaaaaaaa"
       inkscape:connector-curvature="0"
       id="path1000"
       d="m 72.352819,35.114693 c -2.880662,2.558693 -2.026095,7.434909 -2.997818,11.163297 -0.690791,2.650482 -2.13593,5.230271 -2.013505,7.966557 0.132402,2.959275 0.639076,6.519178 2.938316,8.386887 2.624873,2.132226 6.68914,1.036532 10.058904,1.321197 2.973945,0.251227 6.027708,-0.280126 8.947165,0.33974 2.026226,0.430213 3.812442,1.629889 5.769792,2.30772 1.858234,0.643507 3.699953,1.49966 5.659417,1.665897 3.98706,0.338255 7.92285,-1.270111 11.92208,-1.401307 3.4351,-0.112689 6.93802,-0.196994 10.29723,0.5299 3.05809,0.661736 5.63733,3.876798 8.73502,3.436227 1.87063,-0.266051 3.59772,-1.796468 4.48717,-3.463477 0.8037,-1.506301 0.69433,-3.439929 0.34198,-5.110477 -0.38276,-1.814756 -1.85002,-3.224552 -2.58199,-4.928687 -1.02709,-2.391235 -2.20745,-4.805645 -2.52131,-7.389133 -0.21132,-1.739453 0.20558,-3.502711 0.45696,-5.236828 0.23381,-1.612877 0.94238,-3.161492 0.97556,-4.79089 0.0911,-4.476843 1.46716,-10.611534 -2.14238,-13.261377 -15.83816,-11.627154 -43.642806,-4.583171 -58.332591,8.464754 z"
       style="opacity:1;fill:#2b0000;stroke:#000000;stroke-width:0.292;stroke-linecap:butt;stroke-linejoin:miter;stroke-miterlimit:4;stroke-dasharray:none;stroke-opacity:1" />
    <path
       style="opacity:1;fill:#2b0000;stroke:#000000;stroke-width:0.292;stroke-linecap:butt;stroke-linejoin:miter;stroke-miterlimit:4;stroke-dasharray:none;stroke-opacity:1"
       d="m 80.085371,121.18272 c -4.630374,0.49218 -9.320192,-0.0186 -13.966342,0.29108 -4.575949,0.30499 -9.109098,1.07761 -13.671694,1.54135 -4.02965,0.40957 -8.10871,0.4164 -12.10171,1.09594 -2.814433,0.47898 -6.727244,-0.28665 -8.30513,2.09258 -0.89096,1.34344 -0.46613,3.70575 0.736015,4.77976 3.148409,2.81282 8.433832,0.45831 12.655411,0.51047 18.208063,0.22499 36.412374,-0.78686 54.621709,-0.85233 3.62578,-0.013 7.25123,0.0919 10.87704,0.0915 3.32607,-3.8e-4 6.65182,-0.0687 9.97785,-0.0862 3.58692,-0.0189 7.17393,-0.0167 10.7609,-0.0202 13.71884,-0.0133 27.48259,1.10658 41.15655,-0.002 3.17588,-0.25755 9.23245,1.64018 9.4341,-1.53974 0.66598,-10.50248 -19.9406,-6.95046 -30.26653,-8.98046 -6.8676,-1.35011 -13.92035,-1.48097 -20.89268,-2.09195 -5.12272,-0.4489 -10.24969,-0.8626 -15.38365,-1.15621 -3.14302,-0.17974 -6.29515,-0.56646 -9.4372,-0.37047 -4.41205,0.27519 -8.733059,1.38283 -13.084316,2.16289 -4.381165,0.78542 -8.684246,2.06387 -13.110323,2.53433 z"
       id="path829"
       inkscape:connector-curvature="0"
       sodipodi:nodetypes="aaaaaaaaaaaaaaaaaaa" />
    <path
       sodipodi:nodetypes="aaaaaaaaaaaaaaaaaaa"
       inkscape:connector-curvature="0"
       id="path1154"
       d="m 88.816621,113.24522 c -2.974985,2.41367 -6.074563,4.97521 -9.733009,6.11191 -3.681433,1.14385 -7.728525,0.0148 -11.555027,0.48302 -7.979599,0.97637 -23.761517,-3.2058 -23.628275,4.83221 0.198277,11.96129 23.460157,5.00776 35.380073,6.02144 2.730002,0.23216 5.47974,-0.005 8.219561,0.009 2.187907,0.011 4.37564,0.0709 6.563542,0.0588 1.997085,-0.0111 3.993062,-0.10842 5.990144,-0.12003 3.62575,-0.0211 7.25123,0.0919 10.87704,0.0915 3.32607,-3.8e-4 6.65182,-0.0687 9.97785,-0.0862 3.58692,-0.0189 7.17418,0.0228 10.7609,-0.0202 9.91642,-0.11884 19.85596,0.10011 29.74414,-0.65715 4.44207,-0.34019 13.21142,2.71201 13.25109,-1.74288 0.13632,-15.30985 -31.19107,-1.16068 -45.42528,-6.79959 -2.29056,-0.9074 -4.43947,-2.36695 -6.07601,-4.20862 -3.14175,-3.53557 -3.3322,-9.16474 -6.6524,-12.53329 -2.23705,-2.26963 -5.19509,-4.46547 -8.37887,-4.60381 -4.18486,-0.181832 -8.06115,2.677 -11.496813,5.07331 -3.076075,2.14551 -4.906245,5.72768 -7.818656,8.09058 z"
       style="opacity:1;fill:#2b0000;stroke:#000000;stroke-width:0.292;stroke-linecap:butt;stroke-linejoin:miter;stroke-miterlimit:4;stroke-dasharray:none;stroke-opacity:1" />
  </g>
</svg>
