<?xml version="1.0" encoding="UTF-8" standalone="no"?>
<!-- Created with Inkscape (http://www.inkscape.org/) -->

<svg
   xmlns:dc="http://purl.org/dc/elements/1.1/"
   xmlns:cc="http://creativecommons.org/ns#"
   xmlns:rdf="http://www.w3.org/1999/02/22-rdf-syntax-ns#"
   xmlns:svg="http://www.w3.org/2000/svg"
   xmlns="http://www.w3.org/2000/svg"
   xmlns:sodipodi="http://sodipodi.sourceforge.net/DTD/sodipodi-0.dtd"
   xmlns:inkscape="http://www.inkscape.org/namespaces/inkscape"
   id="svg8"
   version="1.1"
   viewBox="0 0 210 297"
   height="297mm"
   width="210mm"
   inkscape:version="0.92.2 5c3e80d, 2017-08-06"
   sodipodi:docname="cake-layer-v5.svg">
  <defs
     id="defs2" />
  <sodipodi:namedview
     inkscape:window-maximized="1"
     inkscape:window-y="1"
     inkscape:window-x="0"
     inkscape:window-height="801"
     inkscape:window-width="1440"
     showgrid="false"
     inkscape:current-layer="layer1"
     inkscape:document-units="mm"
     inkscape:cy="635.14718"
     inkscape:cx="403.15873"
     inkscape:zoom="1.4142136"
     inkscape:pageshadow="2"
     inkscape:pageopacity="0.0"
     borderopacity="1.0"
     bordercolor="#666666"
     pagecolor="#ffffff"
     id="base" />
  <metadata
     id="metadata5">
    <rdf:RDF>
      <cc:Work
         rdf:about="">
        <dc:format>image/svg+xml</dc:format>
        <dc:type
           rdf:resource="http://purl.org/dc/dcmitype/StillImage" />
        <dc:title></dc:title>
      </cc:Work>
    </rdf:RDF>
  </metadata>
  <g
     inkscape:label="Layer 1"
     inkscape:groupmode="layer"
     id="layer1">
    <path
       sodipodi:nodetypes="csaaaaaaaaaaaaaaaac"
       inkscape:connector-curvature="0"
       id="path1674"
       d="m 83.203962,107.72886 c -5.580607,2.58775 -17.782117,3.87118 -15.719848,9.66659 2.795357,7.85554 13.236508,-0.82397 12.579412,3.47643 -0.888724,5.8163 -11.77148,-0.9968 -17.641438,-0.59337 -2.035144,0.13987 -4.143107,0.26707 -6.030723,1.04056 -1.347242,0.55206 -2.823826,1.25182 -3.587774,2.49126 -0.969499,1.57293 -1.912044,4.02922 -0.778312,5.48822 2.434639,3.13314 7.870726,1.08739 11.833339,1.29172 16.300486,0.84051 32.645156,-0.0456 48.965632,-0.27877 3.18347,-0.0455 6.36527,-0.18465 9.54888,-0.21849 14.13621,-0.15027 28.29785,0.89004 42.41098,0.0686 3.4471,-0.20064 10.13218,2.23105 10.28692,-1.21842 0.77734,-17.32829 -52.77596,6.52305 -50.92031,-10.72312 0.64182,-5.96496 13.36857,3.93889 17.99776,0.1227 1.44399,-1.19039 1.88916,-3.85399 1.03338,-5.51825 -2.09378,-4.07185 -8.2345,-4.01621 -12.45216,-5.7981 -4.78126,-2.02 -9.50051,-4.34967 -14.55281,-5.53924 -4.23654,-0.9975 -8.67831,-1.855407 -12.99351,-1.28771 -7.056225,0.92832 -14.018797,4.92016 -19.979418,7.52939 z"
       style="opacity:0.14;fill:#ff0000;stroke:#000000;stroke-width:0.292;stroke-linecap:butt;stroke-linejoin:miter;stroke-miterlimit:4;stroke-dasharray:none;stroke-opacity:1" />
    <path
       style="opacity:1;fill:#ff6600;fill-opacity:1;stroke:none;stroke-width:0.19533119;stroke-linecap:round;stroke-linejoin:miter;stroke-miterlimit:4;stroke-dasharray:none;stroke-dashoffset:0;stroke-opacity:1"
       d="M 32.014584,130.89583 H 182.01458 v 10 H 49.741667 32.014584 Z"
       id="rect815"
       inkscape:connector-curvature="0"
       sodipodi:nodetypes="cccccc" />
    <path
       style="opacity:0.564;fill:#2b0000;stroke:#000000;stroke-width:0.292;stroke-linecap:butt;stroke-linejoin:miter;stroke-miterlimit:4;stroke-dasharray:none;stroke-opacity:1"
       d="m 32.400736,135.65641 c 6.310941,1.12774 14.408599,-3.15543 19.227183,0.31538 10.790022,7.77203 -1.284242,33.72176 6.453161,34.95406 7.737403,1.2323 -2.947503,-29.74723 10.082066,-35.53395 5.782257,-2.56802 14.128681,0.83983 18.525571,5.55453 6.245015,6.69641 0.625078,24.87009 6.036749,26.79808 7.286504,2.59592 1.668698,-23.70041 8.944794,-32.08811 1.5393,-1.77447 4.01884,-2.70664 6.45317,-2.83204 3.21014,-0.16536 5.79907,2.96145 9.01166,2.83204 2.15868,-0.087 3.65688,-2.61435 5.79931,-2.38051 6.55992,0.71598 8.2056,10.68722 14.82045,10.84456 3.81963,0.0909 5.51835,-4.52512 8.98508,-5.84471 3.12509,-1.18955 6.90521,-0.52797 10.13156,-1.67089 3.46668,-1.22806 6.281,-7.06539 9.58885,-5.45786 11.87777,3.63406 -3.8967,21.88472 6.47452,23.83172 8.59924,1.61434 0.0928,-15.80472 2.83821,-19.25975 1.33717,-1.51347 5.33554,0.76896 6.00264,-0.82214 1.37398,-3.27706 0.27821,-6.75909 0.23887,-9.29263 -46.37397,-1.57545 -81.87382,1.31339 -149.999996,0 z"
       id="path859"
       inkscape:connector-curvature="0"
       sodipodi:nodetypes="cazaasaaaaaaacscsccc" />
    <path
       sodipodi:nodetypes="aaaaaaaaaaaaaaaaaaa"
       inkscape:connector-curvature="0"
       id="path1000"
       d="m 72.352819,35.114693 c -2.880662,2.558693 -2.026095,7.434909 -2.997818,11.163297 -0.690791,2.650482 -2.13593,5.230271 -2.013505,7.966557 0.132402,2.959275 0.639076,6.519178 2.938316,8.386887 2.624873,2.132226 6.68914,1.036532 10.058904,1.321197 2.973945,0.251227 6.027708,-0.280126 8.947165,0.33974 2.026226,0.430213 3.812442,1.629889 5.769792,2.30772 1.858234,0.643507 3.699953,1.49966 5.659417,1.665897 3.98706,0.338255 7.92285,-1.270111 11.92208,-1.401307 3.4351,-0.112689 6.93802,-0.196994 10.29723,0.5299 3.05809,0.661736 5.63733,3.876798 8.73502,3.436227 1.87063,-0.266051 3.59772,-1.796468 4.48717,-3.463477 0.8037,-1.506301 0.69433,-3.439929 0.34198,-5.110477 -0.38276,-1.814756 -1.85002,-3.224552 -2.58199,-4.928687 -1.02709,-2.391235 -2.20745,-4.805645 -2.52131,-7.389133 -0.21132,-1.739453 0.20558,-3.502711 0.45696,-5.236828 0.23381,-1.612877 0.94238,-3.161492 0.97556,-4.79089 0.0911,-4.476843 1.46716,-10.611534 -2.14238,-13.261377 -15.83816,-11.627154 -43.642806,-4.583171 -58.332591,8.464754 z"
       style="opacity:1;fill:#2b0000;stroke:#000000;stroke-width:0.292;stroke-linecap:butt;stroke-linejoin:miter;stroke-miterlimit:4;stroke-dasharray:none;stroke-opacity:1" />
    <path
       style="opacity:0.322;fill:#ff6600;stroke:#000000;stroke-width:0.292;stroke-linecap:butt;stroke-linejoin:miter;stroke-miterlimit:4;stroke-dasharray:none;stroke-opacity:1"
       d="m 80.023454,98.491808 c -4.172093,2.619752 -8.190671,5.969932 -10.668453,10.227872 -1.377621,2.36736 -1.612262,5.25709 -2.013505,7.96657 -0.647761,4.37413 -3.612036,9.99871 -0.616369,13.25119 2.442088,2.65145 7.202992,0.32903 10.807259,0.38576 2.732622,0.043 5.466044,-0.002 8.19881,-0.0344 2.11061,-0.0252 4.220787,-0.16987 6.331058,-0.12443 2.88929,0.0622 5.763984,0.46336 8.652836,0.54336 4.15963,0.11518 8.32273,-0.16292 12.48335,-0.0917 2.74839,0.047 5.49061,0.3721 8.23925,0.34281 3.60459,-0.0384 7.20313,-0.35204 10.793,-0.67973 1.31252,-0.11981 3.01865,0.48597 3.9259,-0.47005 1.17524,-1.23843 0.69433,-3.43993 0.34198,-5.11048 -0.38276,-1.81476 -2.08266,-3.14249 -2.58199,-4.92869 -0.66442,-2.37676 -0.0223,-4.96098 -0.46333,-7.38914 -0.32619,-1.79599 -0.65818,-3.67382 -1.60102,-5.23684 -1.17059,-1.94058 -2.9001,-3.59337 -4.82419,-4.79089 -8.92836,-5.556882 -19.31598,-10.402478 -29.831502,-10.267971 -6.109252,0.07815 -11.998829,3.157754 -17.173084,6.406779 z"
       id="path1615"
       inkscape:connector-curvature="0"
       sodipodi:nodetypes="aaaaaaaaaaaaaaaaaaa" />
    <path
       style="opacity:1;fill:#2b0000;stroke:#000000;stroke-width:0.292;stroke-linecap:butt;stroke-linejoin:miter;stroke-miterlimit:4;stroke-dasharray:none;stroke-opacity:1"
       d="m 98.825866,113.52861 c -1.824023,0.88851 -3.638793,1.806 -5.523516,2.55722 -2.736344,1.09066 -5.544856,2.00301 -8.374519,2.82162 -2.114174,0.61163 -4.245686,1.19339 -6.416117,1.55815 -2.640041,0.44367 -5.42305,0.0177 -7.995154,0.75992 -3.501456,1.01045 -10.235256,1.30998 -9.761701,4.92342 0.843185,6.43388 12.605548,3.26004 19.053087,3.99151 7.669658,0.87012 15.433421,0.48389 23.152204,0.44982 3.28931,-0.0145 6.57583,-0.19469 9.8641,-0.27877 3.18275,-0.0814 6.36521,-0.1901 9.54888,-0.21849 4.53298,-0.0404 9.12468,0.79464 13.59932,0.0686 6.04368,-0.98063 17.60214,0.22362 17.39629,-5.89564 -0.17825,-5.29901 -10.27253,-2.63516 -15.37346,-4.08147 -5.47114,-1.55128 -11.19458,-2.49221 -16.33301,-4.92869 -1.86637,-0.88498 -3.39211,-2.3605 -5.14055,-3.46028 -1.5641,-0.98383 -3.00663,-2.29075 -4.78152,-2.80468 -1.09595,-0.31734 -2.30248,-0.33873 -3.42103,-0.11367 -1.4094,0.28359 -2.62623,1.17178 -3.91971,1.79926 -1.87772,0.91089 -3.69736,1.93823 -5.573594,2.85217 z"
       id="path881"
       inkscape:connector-curvature="0"
       sodipodi:nodetypes="aaaaaaaaaaaaaaaaaaa" />
    <path
       sodipodi:nodetypes="aaaaaaaaaaaaaaaaaaa"
       inkscape:connector-curvature="0"
       id="path1846"
       d="m 85.278623,120.43749 c -2.781894,0.24109 -5.584924,0.079 -8.374519,0.20238 -4.201246,0.1858 -8.386913,0.67306 -12.590043,0.80979 -4.782861,0.15559 -9.608396,-0.58725 -14.356169,0.0116 -6.077993,0.76663 -17.399115,-1.56335 -17.806513,4.54924 -0.280994,4.21603 7.615554,3.90002 11.756629,4.73987 8.6648,1.75732 17.678614,0.43146 26.5198,0.44982 26.738617,0.0555 53.470812,-1.05998 80.209462,-1.02713 7.48686,0.009 15.00311,1.03411 22.458,0.34278 2.07125,-0.19207 4.30605,-0.2154 6.11577,-1.24102 1.28642,-0.72906 3.36833,-1.84684 2.99046,-3.2764 -1.7565,-6.64516 -12.86974,-5.03048 -19.61096,-6.37193 -8.39307,-1.67015 -17.0461,-1.5986 -25.59343,-2.01827 -3.78991,-0.18608 -7.58923,-0.0856 -11.38129,-0.22108 -2.48253,-0.0887 -4.95832,-0.4168 -7.44226,-0.38743 -1.92368,0.0228 -3.84049,0.24659 -5.75494,0.43624 -2.59515,0.25708 -5.1674,0.72624 -7.76558,0.95071 -2.85516,0.24667 -5.734822,0.14929 -8.586397,0.43436 -3.618116,0.3617 -7.165447,1.30253 -10.78802,1.61647 z"
       style="opacity:1;fill:#ff6600;stroke:#000000;stroke-width:0.292;stroke-linecap:butt;stroke-linejoin:miter;stroke-miterlimit:4;stroke-dasharray:none;stroke-opacity:1" />
  </g>
</svg>
