<?xml version="1.0" encoding="UTF-8" standalone="no"?>
<!-- Created with Inkscape (http://www.inkscape.org/) -->

<svg
   xmlns:dc="http://purl.org/dc/elements/1.1/"
   xmlns:cc="http://creativecommons.org/ns#"
   xmlns:rdf="http://www.w3.org/1999/02/22-rdf-syntax-ns#"
   xmlns:svg="http://www.w3.org/2000/svg"
   xmlns="http://www.w3.org/2000/svg"
   xmlns:sodipodi="http://sodipodi.sourceforge.net/DTD/sodipodi-0.dtd"
   xmlns:inkscape="http://www.inkscape.org/namespaces/inkscape"
   width="156.3371mm"
   height="149.50702mm"
   viewBox="0 0 156.3371 149.50702"
   version="1.1"
   id="svg8"
   inkscape:version="0.92.2 5c3e80d, 2017-08-06"
   sodipodi:docname="circle-check-mark-celebration-v2.svg">
  <defs
     id="defs2" />
  <sodipodi:namedview
     id="base"
     pagecolor="#ffffff"
     bordercolor="#666666"
     borderopacity="1.0"
     inkscape:pageopacity="0.0"
     inkscape:pageshadow="2"
     inkscape:zoom="0.49497475"
     inkscape:cx="103.78147"
     inkscape:cy="280.57194"
     inkscape:document-units="mm"
     inkscape:current-layer="layer1"
     showgrid="false"
     inkscape:window-width="1440"
     inkscape:window-height="801"
     inkscape:window-x="0"
     inkscape:window-y="1"
     inkscape:window-maximized="1"
     fit-margin-top="0"
     fit-margin-left="0"
     fit-margin-right="0"
     fit-margin-bottom="0" />
  <metadata
     id="metadata5">
    <rdf:RDF>
      <cc:Work
         rdf:about="">
        <dc:format>image/svg+xml</dc:format>
        <dc:type
           rdf:resource="http://purl.org/dc/dcmitype/StillImage" />
        <dc:title></dc:title>
      </cc:Work>
    </rdf:RDF>
  </metadata>
  <g
     inkscape:label="Layer 1"
     inkscape:groupmode="layer"
     id="layer1"
     transform="translate(-26.213772,-56.496415)">
    <circle
       style="opacity:0.778;fill:#00d400;fill-opacity:1;stroke:#80ff80;stroke-width:3;stroke-linecap:round;stroke-linejoin:miter;stroke-miterlimit:4;stroke-dasharray:none;stroke-dashoffset:0;stroke-opacity:1"
       id="path1432"
       cx="102.86309"
       cy="129.50298"
       r="25" />
    <path
       style="opacity:0.778;fill:#00d400;fill-opacity:1;stroke:#80ff80;stroke-width:0;stroke-linecap:round;stroke-linejoin:miter;stroke-miterlimit:4;stroke-dasharray:none;stroke-dashoffset:0;stroke-opacity:1"
       inkscape:transform-center-x="0.14580449"
       inkscape:transform-center-y="-2.2799534"
       d="M 102.36115,94.010885 95.879241,97.56395 99.952859,86.118702 Z"
       id="path1434"
       inkscape:connector-curvature="0"
       sodipodi:nodetypes="cccc" />
    <path
       sodipodi:type="star"
       style="opacity:0.778;fill:#00d400;fill-opacity:1;stroke:#80ff80;stroke-width:0;stroke-linecap:round;stroke-linejoin:miter;stroke-miterlimit:4;stroke-dasharray:none;stroke-dashoffset:0;stroke-opacity:1"
       id="path1438"
       sodipodi:sides="3"
       sodipodi:cx="129.26785"
       sodipodi:cy="160.17261"
       sodipodi:r1="8.2896643"
       sodipodi:r2="4.1448326"
       sodipodi:arg1="0.42285393"
       sodipodi:arg2="1.4700515"
       inkscape:flatsided="false"
       inkscape:rounded="0"
       inkscape:randomized="0"
       d="m 136.82738,163.57439 -7.14266,0.72203 -7.14266,0.72203 2.94603,-6.54674 2.94603,-6.54673 4.19663,5.8247 z"
       inkscape:transform-center-x="-0.20729642"
       inkscape:transform-center-y="-0.91528581"
       transform="matrix(0.49727775,0,0,0.53811979,68.786166,70.171138)" />
    <path
       sodipodi:nodetypes="cccc"
       inkscape:connector-curvature="0"
       id="path1441"
       d="m 65.932346,142.54441 4.229008,6.06259 -11.816711,-2.82019 z"
       inkscape:transform-center-y="-0.0340734"
       inkscape:transform-center-x="2.1216945"
       style="opacity:0.778;fill:#00d400;fill-opacity:1;stroke:#80ff80;stroke-width:0;stroke-linecap:round;stroke-linejoin:miter;stroke-miterlimit:4;stroke-dasharray:none;stroke-dashoffset:0;stroke-opacity:1" />
    <path
       sodipodi:type="star"
       style="opacity:0.778;fill:none;fill-opacity:1;stroke:#00d400;stroke-width:2;stroke-linecap:round;stroke-linejoin:miter;stroke-miterlimit:4;stroke-dasharray:none;stroke-dashoffset:0;stroke-opacity:1"
       id="path1443"
       sodipodi:sides="5"
       sodipodi:cx="26.836309"
       sodipodi:cy="42.244045"
       sodipodi:r1="14.392905"
       sodipodi:r2="7.1964521"
       sodipodi:arg1="1.0483929"
       sodipodi:arg2="1.6767114"
       inkscape:flatsided="false"
       inkscape:rounded="0"
       inkscape:randomized="0"
       d="m 34.017857,54.71726 -7.942336,-5.31709 -8.882724,3.528369 2.602537,-9.196682 -6.100591,-7.357647 9.550793,-0.366772 5.112351,-8.075644 3.300178,8.970005 9.260197,2.366624 -7.51117,5.910539 z"
       inkscape:transform-center-x="1.1228037"
       inkscape:transform-center-y="0.0027100141"
       transform="matrix(0.3126914,0,0,0.31510228,64.231332,89.248458)" />
    <path
       transform="matrix(0.3126914,0,0,0.31510228,120.54978,86.602625)"
       inkscape:transform-center-y="0.0027100141"
       inkscape:transform-center-x="1.1228037"
       d="m 34.017857,54.71726 -7.942336,-5.31709 -8.882724,3.528369 2.602537,-9.196682 -6.100591,-7.357647 9.550793,-0.366772 5.112351,-8.075644 3.300178,8.970005 9.260197,2.366624 -7.51117,5.910539 z"
       inkscape:randomized="0"
       inkscape:rounded="0"
       inkscape:flatsided="false"
       sodipodi:arg2="1.6767114"
       sodipodi:arg1="1.0483929"
       sodipodi:r2="7.1964521"
       sodipodi:r1="14.392905"
       sodipodi:cy="42.244045"
       sodipodi:cx="26.836309"
       sodipodi:sides="5"
       id="path1445"
       style="opacity:0.778;fill:#00d400;fill-opacity:1;stroke:#55d400;stroke-width:0;stroke-linecap:round;stroke-linejoin:miter;stroke-miterlimit:4;stroke-dasharray:none;stroke-dashoffset:0;stroke-opacity:1"
       sodipodi:type="star" />
    <ellipse
       style="opacity:0.778;fill:#00d400;fill-opacity:1;stroke:#00d400;stroke-width:0;stroke-linecap:round;stroke-linejoin:miter;stroke-miterlimit:4;stroke-dasharray:none;stroke-dashoffset:0;stroke-opacity:1"
       id="path1447"
       cx="83.386902"
       cy="162.96428"
       rx="2.4999993"
       ry="2.4999995" />
    <circle
       cy="165.35416"
       cx="106.6994"
       id="ellipse1449"
       style="opacity:0.778;fill:none;fill-opacity:1;stroke:#00d400;stroke-width:0.83333349;stroke-linecap:round;stroke-linejoin:miter;stroke-miterlimit:4;stroke-dasharray:none;stroke-dashoffset:0;stroke-opacity:1"
       r="2.0833333" />
    <circle
       r="2.0833333"
       style="opacity:0.778;fill:none;fill-opacity:1;stroke:#00d400;stroke-width:0.83333349;stroke-linecap:round;stroke-linejoin:miter;stroke-miterlimit:4;stroke-dasharray:none;stroke-dashoffset:0;stroke-opacity:1"
       id="circle1451"
       cx="140.71725"
       cy="131.3363" />
    <path
       sodipodi:type="star"
       style="opacity:0.778;fill:none;fill-opacity:1;stroke:#00d400;stroke-width:4.06750393;stroke-linecap:round;stroke-linejoin:miter;stroke-miterlimit:4;stroke-dasharray:none;stroke-dashoffset:0;stroke-opacity:1"
       id="path1453"
       sodipodi:sides="5"
       sodipodi:cx="39.6875"
       sodipodi:cy="105.36607"
       sodipodi:r1="14.67794"
       sodipodi:r2="11.874703"
       sodipodi:arg1="0.96850898"
       sodipodi:arg2="1.5968275"
       inkscape:flatsided="true"
       inkscape:rounded="0"
       inkscape:randomized="0"
       d="M 48.002976,117.46131 30.753868,117.0122 25.850736,100.46853 40.069541,90.693106 53.760379,101.19522 Z"
       inkscape:transform-center-x="-0.02606909"
       inkscape:transform-center-y="-0.28575272"
       transform="matrix(0.22082185,0,0,0.22171088,53.26022,102.56335)" />
    <path
       style="fill:none;stroke:#00d400;stroke-width:1;stroke-linecap:butt;stroke-linejoin:miter;stroke-miterlimit:4;stroke-dasharray:none;stroke-opacity:1"
       d="m 72.193451,117.46131 -5.885699,0.65659 -2.486225,-6.33754 -4.636893,1.477 -1.239399,-5.46448 -4.42554,1.20531 -1.755774,-5.39978 -5.258738,1.27439 -1.5072,-5.865559 -6.212674,1.048929 -1.096296,-6.008587 -6.592631,0.818095 -1.236264,-6.13056"
       id="path1463"
       inkscape:connector-curvature="0"
       sodipodi:nodetypes="ccccccccccccc" />
    <path
       sodipodi:nodetypes="caaaaaaaaaaac"
       inkscape:connector-curvature="0"
       id="path1465"
       d="m 73.333552,152.83168 c 0,0 -0.806268,4.44553 -2.5678,5.33657 -2.024937,1.02428 -4.776479,-2.47577 -6.690705,-1.25706 -1.368361,0.87118 0.220481,3.9481 -1.209623,4.71372 -1.646634,0.88154 -3.623979,-2.69667 -5.288959,-1.85029 -1.362923,0.69283 0.0022,3.63605 -1.327686,4.39038 -1.646287,0.93381 -3.848962,-2.28887 -5.508229,-1.37832 -1.581212,0.86771 -0.103723,4.31557 -1.71142,5.13317 -1.799386,0.91508 -3.940507,-2.68733 -5.771023,-1.83623 -1.904417,0.88546 -0.474199,5.00467 -2.408862,5.82194 -1.875454,0.79225 -3.781761,-3.01138 -5.674114,-2.26039 -2.05824,0.81683 -0.755596,5.18556 -2.806185,6.02141 -1.930443,0.78688 -5.851787,-2.20651 -5.851787,-2.20651"
       style="fill:none;stroke:#00d400;stroke-width:1;stroke-linecap:butt;stroke-linejoin:miter;stroke-miterlimit:4;stroke-dasharray:none;stroke-opacity:1" />
    <path
       style="fill:none;stroke:#37c837;stroke-width:1;stroke-linecap:butt;stroke-linejoin:miter;stroke-miterlimit:4;stroke-dasharray:none;stroke-opacity:1"
       d="M 95.949758,161.76162 82.853553,205.86109"
       id="path1469"
       inkscape:connector-curvature="0" />
    <path
       inkscape:connector-curvature="0"
       id="path1471"
       d="M 127.51,56.65644 112.78678,100.2397"
       style="fill:none;stroke:#37c837;stroke-width:1;stroke-linecap:butt;stroke-linejoin:miter;stroke-miterlimit:4;stroke-dasharray:none;stroke-opacity:1" />
    <path
       style="fill:none;stroke:#37c837;stroke-width:1;stroke-linecap:butt;stroke-linejoin:miter;stroke-miterlimit:4;stroke-dasharray:none;stroke-opacity:1"
       d="M 170.39224,93.372548 131.91106,118.5811"
       id="path1473"
       inkscape:connector-curvature="0" />
    <path
       style="fill:none;stroke:#00d400;stroke-width:1;stroke-linecap:butt;stroke-linejoin:miter;stroke-miterlimit:4;stroke-dasharray:none;stroke-opacity:1"
       d="m 182.27335,160.98117 c 0,0 -3.75819,2.50774 -5.62275,1.85938 -2.14336,-0.74532 -1.53656,-5.15589 -3.7429,-5.68652 -1.57717,-0.37929 -2.68716,2.9009 -4.23129,2.40386 -1.77791,-0.57233 -0.57714,-4.48021 -2.34249,-5.09014 -1.4451,-0.49927 -2.61444,2.52699 -4.08069,2.09434 -1.81527,-0.53578 -1.02677,-4.35881 -2.83434,-4.92006 -1.72253,-0.5348 -3.17672,2.92291 -4.88159,2.3342 -1.90815,-0.65891 -0.80371,-4.70142 -2.68745,-5.42716 -1.95978,-0.75503 -3.92979,3.13502 -5.86153,2.31086 -1.87262,-0.79895 -0.46032,-4.81231 -2.31498,-5.65206 -2.01726,-0.91337 -4.25539,3.05821 -6.28101,2.16356 -1.90695,-0.84224 -2.47716,-5.74246 -2.47716,-5.74246"
       id="path1475"
       inkscape:connector-curvature="0"
       sodipodi:nodetypes="caaaaaaaaaaac" />
    <path
       style="fill:none;fill-opacity:1;stroke:#f4eed7;stroke-width:3;stroke-linecap:round;stroke-linejoin:miter;stroke-miterlimit:4;stroke-dasharray:none;stroke-opacity:1"
       d="m 90.245386,128.02637 5.971644,9.68099 c 5.61864,-7.45735 13.26658,-12.0737 21.38156,-16.03617"
       id="path1477"
       inkscape:connector-curvature="0"
       sodipodi:nodetypes="ccc" />
  </g>
</svg>
